# Blender 5.1.0
# www.blender.org
mtllib 2000VH_1.mtl
o Куб.001
v -0.855459 0.233167 6.004951
v -0.855459 0.233167 4.004951
v -0.855459 4.249835 4.004951
v 1.144541 0.233167 6.004951
v 1.144541 0.233167 4.004951
v 1.144541 4.249835 4.004951
v -0.855839 -0.250165 6.011072
v -0.855839 0.251919 6.011072
v -0.855839 -0.250165 0.011071
v -0.855839 0.251919 0.011071
v 1.144161 -0.250165 6.011072
v 1.144161 0.251919 6.011072
v 1.144161 -0.250165 0.011071
v 1.144161 0.251919 0.011071
v -0.855459 4.249835 5.243391
v -0.855459 2.230697 6.004951
v 1.144541 4.249835 5.243391
v 1.144541 2.230697 6.004951
vn -1.0000 -0.0000 -0.0000
vn -0.0000 -0.0000 -1.0000
vn 1.0000 -0.0000 -0.0000
vn -0.0000 -0.0000 1.0000
vn -0.0000 -1.0000 -0.0000
vn -0.0000 1.0000 -0.0000
vn -0.0000 0.3529 0.9357
vt 0.625000 0.250000
vt 0.375000 0.000000
vt 0.499328 0.000000
vt 0.375000 0.500000
vt 0.375000 0.250000
vt 0.375000 0.750000
vt 0.625000 0.500000
vt 0.625000 0.654805
vt 0.375000 1.000000
vt 0.499328 0.750000
vt 0.499328 1.000000
vt 0.125000 0.750000
vt 0.125000 0.500000
vt 0.875000 0.654805
vt 0.625000 0.000000
vt 0.625000 0.750000
vt 0.875000 0.500000
vt 0.475235 0.824705
vt 0.621311 0.960086
vt 0.621311 0.824704
vt 0.625000 0.095195
vt 0.625000 1.000000
vt 0.875000 0.750000
vt 0.475235 0.960086
s 0
usemtl 
f 3/1/1 1/2/1 16/3/1
f 3/1/2 5/4/2 2/5/2
f 4/6/3 6/7/3 17/8/3
f 1/9/4 18/10/4 16/11/4
f 5/4/5 1/12/5 2/13/5
f 6/7/6 15/14/6 17/8/6
f 8/15/1 9/5/1 7/2/1
f 10/1/2 13/4/2 9/5/2
f 14/7/3 11/6/3 13/4/3
f 12/16/4 7/9/4 11/6/4
f 13/4/5 7/12/5 9/13/5
f 10/17/6 12/16/6 14/7/6
f 17/18/7 16/19/7 18/20/7
f 16/3/1 15/21/1 3/1/1
f 3/1/1 2/5/1 1/2/1
f 3/1/2 6/7/2 5/4/2
f 17/8/3 18/10/3 4/6/3
f 4/6/3 5/4/3 6/7/3
f 1/9/4 4/6/4 18/10/4
f 5/4/5 4/6/5 1/12/5
f 6/7/6 3/17/6 15/14/6
f 8/15/1 10/1/1 9/5/1
f 10/1/2 14/7/2 13/4/2
f 14/7/3 12/16/3 11/6/3
f 12/16/4 8/22/4 7/9/4
f 13/4/5 11/6/5 7/12/5
f 10/17/6 8/23/6 12/16/6
f 17/18/7 15/24/7 16/19/7
o Куб.002
v 1.227142 2.664428 3.584921
v 1.227142 3.662553 3.584921
v 1.227142 2.664428 4.633322
v 1.227142 3.662553 4.633322
v -1.215252 2.664428 3.584921
v -1.215252 3.662553 3.584921
v -1.215252 2.664428 4.633322
v -1.215252 3.662553 4.633322
vn 1.0000 -0.0000 -0.0000
vn -0.0000 -0.0000 1.0000
vn -1.0000 -0.0000 -0.0000
vn -0.0000 -0.0000 -1.0000
vn -0.0000 -1.0000 -0.0000
vn -0.0000 1.0000 -0.0000
vt 0.625000 0.000000
vt 0.375000 0.250000
vt 0.375000 0.000000
vt 0.625000 0.250000
vt 0.375000 0.500000
vt 0.625000 0.500000
vt 0.375000 0.750000
vt 0.625000 0.750000
vt 0.375000 1.000000
vt 0.125000 0.750000
vt 0.125000 0.500000
vt 0.875000 0.500000
vt 0.625000 1.000000
vt 0.875000 0.750000
s 0
f 20/25/8 21/26/8 19/27/8
f 22/28/9 25/29/9 21/26/9
f 26/30/10 23/31/10 25/29/10
f 24/32/11 19/33/11 23/31/11
f 25/29/12 19/34/12 21/35/12
f 22/36/13 24/32/13 26/30/13
f 20/25/8 22/28/8 21/26/8
f 22/28/9 26/30/9 25/29/9
f 26/30/10 24/32/10 23/31/10
f 24/32/11 20/37/11 19/33/11
f 25/29/12 23/31/12 19/34/12
f 22/36/13 20/38/13 24/32/13
o Куб.005
v -0.065328 3.002727 2.959683
v 0.270035 3.002727 2.959683
v -0.065328 2.805972 2.959683
v 0.270035 2.805972 2.959683
v -0.065328 3.002727 3.253016
v 0.270035 3.002727 3.253016
v -0.065328 2.805972 3.253016
v 0.270035 2.805972 3.253016
v 0.023072 2.959152 3.102146
v 0.023072 2.766889 3.102146
v 0.024590 2.959152 3.117980
v 0.024590 2.766889 3.117980
v 0.029084 2.959152 3.133205
v 0.029084 2.766889 3.133205
v 0.036383 2.959152 3.147237
v 0.036383 2.766889 3.147237
v 0.046205 2.959152 3.159537
v 0.046205 2.766889 3.159537
v 0.058174 2.959152 3.169630
v 0.058174 2.766889 3.169630
v 0.071829 2.959152 3.177130
v 0.071829 2.766889 3.177130
v 0.086645 2.959152 3.181749
v 0.086645 2.766889 3.181749
v 0.102054 2.959152 3.183309
v 0.102054 2.766889 3.183309
v 0.117462 2.959152 3.181749
v 0.117462 2.766889 3.181749
v 0.132279 2.959152 3.177130
v 0.132279 2.766889 3.177130
v 0.145934 2.959152 3.169630
v 0.145934 2.766889 3.169630
v 0.157902 2.959152 3.159537
v 0.157902 2.766889 3.159537
v 0.167725 2.959152 3.147237
v 0.167725 2.766889 3.147237
v 0.175023 2.959152 3.133205
v 0.175023 2.766889 3.133205
v 0.179518 2.959152 3.117980
v 0.179518 2.766889 3.117980
v 0.181036 2.959152 3.102146
v 0.181036 2.766889 3.102146
v 0.179518 2.959152 3.086312
v 0.179518 2.766889 3.086312
v 0.175023 2.959152 3.071086
v 0.175023 2.766889 3.071086
v 0.167725 2.959152 3.057054
v 0.167725 2.766889 3.057054
v 0.157902 2.959152 3.044755
v 0.157902 2.766889 3.044755
v 0.145934 2.959152 3.034661
v 0.145934 2.766889 3.034661
v 0.132279 2.959152 3.027161
v 0.132279 2.766889 3.027161
v 0.117462 2.959152 3.022542
v 0.117462 2.766889 3.022542
v 0.102054 2.959152 3.020983
v 0.102054 2.766889 3.020983
v 0.086645 2.959152 3.022542
v 0.086645 2.766889 3.022542
v 0.071829 2.959152 3.027161
v 0.071829 2.766889 3.027161
v 0.058174 2.959152 3.034661
v 0.058174 2.766889 3.034661
v 0.046205 2.959152 3.044755
v 0.046205 2.766889 3.044755
v 0.036383 2.959152 3.057054
v 0.036383 2.766889 3.057054
v 0.029084 2.959152 3.071086
v 0.029084 2.766889 3.071086
v 0.024590 2.959152 3.086312
v 0.024590 2.766889 3.086312
v -0.202706 3.421610 2.982417
v 0.385702 3.421610 2.982417
v -0.202706 3.388800 2.934985
v 0.385702 3.388800 2.934985
v -0.202706 3.347367 2.894865
v 0.385702 3.347367 2.894865
v -0.202706 3.298903 2.863599
v 0.385702 3.298903 2.863599
v -0.202706 3.245271 2.842389
v 0.385702 3.245271 2.842389
v -0.202706 3.188531 2.832049
v 0.385702 3.188531 2.832049
v -0.202706 3.130865 2.832977
v 0.385702 3.130865 2.832977
v -0.202706 3.074487 2.845138
v 0.385702 3.074487 2.845138
v -0.202706 3.021566 2.868064
v 0.385702 3.021566 2.868064
v -0.202706 2.974133 2.900873
v 0.385702 2.974133 2.900873
v -0.202706 2.934014 2.942306
v 0.385702 2.934014 2.942306
v -0.202706 2.902748 2.990770
v 0.385702 2.902748 2.990770
v -0.202706 2.881537 3.044402
v 0.385702 2.881537 3.044402
v -0.202706 2.871197 3.101142
v 0.385702 2.871197 3.101142
v -0.202706 2.872126 3.158808
v 0.385702 2.872126 3.158808
v -0.202706 2.884287 3.215186
v 0.385702 2.884287 3.215186
v -0.202706 2.907212 3.268108
v 0.385702 2.907212 3.268108
v -0.202706 2.940022 3.315540
v 0.385702 2.940022 3.315540
v -0.202706 2.981455 3.355660
v 0.385702 2.981455 3.355660
v -0.202706 3.029919 3.386926
v 0.385702 3.029919 3.386926
v -0.202706 3.083551 3.408136
v 0.385702 3.083551 3.408136
v -0.202706 3.140290 3.418476
v 0.385702 3.140290 3.418476
v -0.202706 3.197957 3.417547
v 0.385702 3.197957 3.417547
v -0.202706 3.254334 3.405387
v 0.385702 3.254334 3.405387
v -0.202706 3.307256 3.382461
v 0.385702 3.307256 3.382461
v -0.202706 3.354688 3.349651
v 0.385702 3.354688 3.349651
v -0.202706 3.394809 3.308218
v 0.385702 3.394809 3.308218
v -0.202706 3.426075 3.259755
v 0.385702 3.426075 3.259755
v -0.202706 3.447285 3.206123
v 0.385702 3.447285 3.206123
v -0.202706 3.457624 3.149383
v 0.385702 3.457624 3.149383
v -0.202706 3.456696 3.091716
v 0.385702 3.456696 3.091716
v -0.202706 3.444535 3.035339
v 0.385702 3.444535 3.035339
v -0.045109 2.985771 2.936053
v -0.045109 3.321134 2.936053
v -0.045109 2.985771 2.739298
v -0.045109 3.321134 2.739298
v 0.248225 2.985771 2.936053
v 0.248225 3.321134 2.936053
v 0.248225 2.985771 2.739298
v 0.248225 3.321134 2.739298
v 0.097354 3.074171 2.892478
v 0.097354 3.074171 2.700215
v 0.113188 3.075688 2.892478
v 0.113188 3.075688 2.700215
v 0.128414 3.080183 2.892478
v 0.128414 3.080183 2.700215
v 0.142446 3.087481 2.892478
v 0.142446 3.087481 2.700215
v 0.154745 3.097304 2.892478
v 0.154745 3.097304 2.700215
v 0.164838 3.109272 2.892478
v 0.164838 3.109272 2.700215
v 0.172339 3.122927 2.892478
v 0.172339 3.122927 2.700215
v 0.176957 3.137744 2.892478
v 0.176957 3.137744 2.700215
v 0.178517 3.153152 2.892478
v 0.178517 3.153152 2.700215
v 0.176957 3.168561 2.892478
v 0.176957 3.168561 2.700215
v 0.172339 3.183377 2.892478
v 0.172339 3.183378 2.700215
v 0.164838 3.197032 2.892478
v 0.164838 3.197032 2.700215
v 0.154745 3.209001 2.892478
v 0.154745 3.209001 2.700215
v 0.142446 3.218823 2.892478
v 0.142446 3.218823 2.700215
v 0.128414 3.226122 2.892478
v 0.128414 3.226122 2.700215
v 0.113188 3.230617 2.892478
v 0.113188 3.230617 2.700215
v 0.097354 3.232134 2.892478
v 0.097354 3.232134 2.700215
v 0.081520 3.230617 2.892478
v 0.081520 3.230617 2.700215
v 0.066294 3.226122 2.892478
v 0.066294 3.226122 2.700215
v 0.052262 3.218823 2.892478
v 0.052262 3.218823 2.700215
v 0.039963 3.209001 2.892478
v 0.039963 3.209001 2.700215
v 0.029869 3.197032 2.892478
v 0.029869 3.197032 2.700215
v 0.022369 3.183377 2.892478
v 0.022369 3.183378 2.700215
v 0.017750 3.168561 2.892478
v 0.017750 3.168561 2.700215
v 0.016191 3.153152 2.892478
v 0.016191 3.153152 2.700215
v 0.017750 3.137744 2.892478
v 0.017750 3.137744 2.700215
v 0.022369 3.122927 2.892478
v 0.022369 3.122927 2.700215
v 0.029869 3.109272 2.892478
v 0.029869 3.109272 2.700215
v 0.039963 3.097304 2.892478
v 0.039963 3.097304 2.700215
v 0.052262 3.087481 2.892478
v 0.052262 3.087481 2.700215
v 0.066294 3.080183 2.892478
v 0.066294 3.080183 2.700215
v 0.081520 3.075688 2.892478
v 0.081520 3.075688 2.700215
v -0.111711 2.827724 3.780907
v -0.111711 3.500851 3.780907
v -0.111711 2.827724 3.079709
v -0.111711 3.500851 3.079709
v 0.288289 2.827724 3.780907
v 0.288289 3.500851 3.780907
v 0.288289 2.827724 3.079709
v 0.288289 3.500851 3.079709
vn -0.0000 -0.0000 -1.0000
vn -0.0000 -1.0000 -0.0000
vn -0.0000 -0.0000 1.0000
vn -0.0000 1.0000 -0.0000
vn -1.0000 -0.0000 -0.0000
vn 1.0000 -0.0000 -0.0000
vn -0.9954 -0.0000 0.0954
vn -0.9591 -0.0000 0.2831
vn -0.8872 -0.0000 0.4615
vn -0.7814 -0.0000 0.6240
vn -0.6447 -0.0000 0.7644
vn -0.4814 -0.0000 0.8765
vn -0.2976 -0.0000 0.9547
vn -0.1007 -0.0000 0.9949
vn 0.1007 -0.0000 0.9949
vn 0.2976 -0.0000 0.9547
vn 0.4814 -0.0000 0.8765
vn 0.6447 -0.0000 0.7644
vn 0.7814 -0.0000 0.6240
vn 0.8872 -0.0000 0.4615
vn 0.9591 -0.0000 0.2831
vn 0.9954 -0.0000 0.0954
vn 0.9954 -0.0000 -0.0954
vn 0.9591 -0.0000 -0.2831
vn 0.8872 -0.0000 -0.4615
vn 0.7814 -0.0000 -0.6240
vn 0.6447 -0.0000 -0.7644
vn 0.4814 -0.0000 -0.8765
vn 0.2976 -0.0000 -0.9547
vn 0.1007 -0.0000 -0.9949
vn -0.1007 -0.0000 -0.9949
vn -0.2976 -0.0000 -0.9547
vn -0.4814 -0.0000 -0.8765
vn -0.6447 -0.0000 -0.7644
vn -0.7814 -0.0000 -0.6240
vn -0.8872 -0.0000 -0.4615
vn -0.9591 -0.0000 -0.2831
vn -0.9954 -0.0000 -0.0954
vn -0.0000 0.8224 -0.5689
vn -0.0000 0.6956 -0.7184
vn -0.0000 0.5421 -0.8403
vn -0.0000 0.3678 -0.9299
vn -0.0000 0.1793 -0.9838
vn -0.0000 -0.0161 -0.9999
vn -0.0000 -0.2109 -0.9775
vn -0.0000 -0.3975 -0.9176
vn -0.0000 -0.5689 -0.8224
vn -0.0000 -0.7184 -0.6956
vn -0.0000 -0.8403 -0.5421
vn -0.0000 -0.9299 -0.3678
vn -0.0000 -0.9838 -0.1793
vn -0.0000 -0.9999 0.0161
vn -0.0000 -0.9775 0.2109
vn -0.0000 -0.9176 0.3975
vn -0.0000 -0.8224 0.5689
vn -0.0000 -0.6956 0.7184
vn -0.0000 -0.5421 0.8403
vn -0.0000 -0.3678 0.9299
vn -0.0000 -0.1793 0.9838
vn -0.0000 0.0161 0.9999
vn -0.0000 0.2109 0.9775
vn -0.0000 0.3975 0.9176
vn -0.0000 0.5689 0.8224
vn -0.0000 0.7184 0.6956
vn -0.0000 0.8403 0.5421
vn -0.0000 0.9299 0.3678
vn -0.0000 0.9838 0.1793
vn -0.0000 0.9999 -0.0161
vn -0.0000 0.9775 -0.2109
vn -0.0000 0.9176 -0.3975
vn 0.0954 -0.9954 -0.0000
vn 0.2831 -0.9591 -0.0000
vn 0.4615 -0.8872 -0.0000
vn 0.6240 -0.7814 -0.0000
vn 0.7644 -0.6447 -0.0000
vn 0.8765 -0.4814 -0.0000
vn 0.9547 -0.2976 -0.0000
vn 0.9949 -0.1007 -0.0000
vn 0.9949 0.1007 -0.0000
vn 0.9547 0.2976 -0.0000
vn 0.8765 0.4814 -0.0000
vn 0.7645 0.6447 -0.0000
vn 0.6240 0.7814 -0.0000
vn 0.4614 0.8872 -0.0000
vn 0.2831 0.9591 -0.0000
vn 0.0954 0.9954 -0.0000
vn -0.0954 0.9954 -0.0000
vn -0.2831 0.9591 -0.0000
vn -0.4614 0.8872 -0.0000
vn -0.6240 0.7814 -0.0000
vn -0.7644 0.6447 -0.0000
vn -0.8765 0.4814 -0.0000
vn -0.9547 0.2976 -0.0000
vn -0.9949 0.1007 -0.0000
vn -0.9949 -0.1007 -0.0000
vn -0.9547 -0.2976 -0.0000
vn -0.8765 -0.4814 -0.0000
vn -0.7644 -0.6447 -0.0000
vn -0.6240 -0.7814 -0.0000
vn -0.4614 -0.8872 -0.0000
vn -0.2831 -0.9591 -0.0000
vn -0.0954 -0.9954 -0.0000
vn 0.0002 -1.0000 -0.0000
vn -0.0002 -1.0000 -0.0000
vn -0.0002 1.0000 -0.0000
vn 0.0002 1.0000 -0.0000
vn 0.4614 -0.8872 -0.0000
vn 0.7644 0.6447 -0.0000
vn -0.7645 0.6447 -0.0000
vn -0.4615 -0.8872 -0.0000
vn -0.0000 0.0002 -1.0000
vn -0.0000 -0.0001 -1.0000
vn -0.0000 -0.0002 -1.0000
vn -0.0000 0.0001 -1.0000
vn -0.0000 -0.0002 1.0000
vn -0.0000 0.0002 1.0000
vt 0.375000 0.000000
vt 0.625000 0.250000
vt 0.375000 0.250000
vt 0.625000 0.500000
vt 0.375000 0.500000
vt 0.375000 0.750000
vt 0.625000 0.750000
vt 0.375000 1.000000
vt 0.125000 0.750000
vt 0.125000 0.500000
vt 0.875000 0.500000
vt 1.000000 1.000000
vt 0.968750 0.500000
vt 1.000000 0.500000
vt 0.968750 1.000000
vt 0.937500 0.500000
vt 0.937500 1.000000
vt 0.906250 0.500000
vt 0.906250 1.000000
vt 0.875000 1.000000
vt 0.843750 0.500000
vt 0.843750 1.000000
vt 0.812500 0.500000
vt 0.812500 1.000000
vt 0.781250 0.500000
vt 0.781250 1.000000
vt 0.750000 0.500000
vt 0.750000 1.000000
vt 0.718750 0.500000
vt 0.718750 1.000000
vt 0.687500 0.500000
vt 0.687500 1.000000
vt 0.656250 0.500000
vt 0.656250 1.000000
vt 0.625000 1.000000
vt 0.593750 0.500000
vt 0.593750 1.000000
vt 0.562500 0.500000
vt 0.562500 1.000000
vt 0.531250 0.500000
vt 0.531250 1.000000
vt 0.500000 0.500000
vt 0.500000 1.000000
vt 0.468750 0.500000
vt 0.468750 1.000000
vt 0.437500 0.500000
vt 0.437500 1.000000
vt 0.406250 0.500000
vt 0.406250 1.000000
vt 0.343750 0.500000
vt 0.343750 1.000000
vt 0.312500 0.500000
vt 0.312500 1.000000
vt 0.281250 0.500000
vt 0.281250 1.000000
vt 0.250000 0.500000
vt 0.250000 1.000000
vt 0.218750 0.500000
vt 0.218750 1.000000
vt 0.187500 0.500000
vt 0.187500 1.000000
vt 0.156250 0.500000
vt 0.156250 1.000000
vt 0.125000 1.000000
vt 0.093750 0.500000
vt 0.093750 1.000000
vt 0.062500 0.500000
vt 0.158156 0.028269
vt 0.471731 0.158156
vt 0.341844 0.471731
vt 0.062500 1.000000
vt 0.031250 0.500000
vt 0.031250 1.000000
vt 0.000000 0.500000
vt 0.796822 0.014612
vt 0.514612 0.203178
vt 0.703178 0.485388
vt 0.625000 0.000000
vt 0.875000 0.750000
vt 0.296822 0.485388
vt 0.250000 0.490000
vt 0.203178 0.485388
vt 0.158156 0.471731
vt 0.116663 0.449553
vt 0.080294 0.419706
vt 0.050447 0.383337
vt 0.028269 0.341844
vt 0.014612 0.296822
vt 0.010000 0.250000
vt 0.014612 0.203178
vt 0.028269 0.158156
vt 0.050447 0.116663
vt 0.080294 0.080294
vt 0.116663 0.050447
vt 0.203178 0.014612
vt 0.250000 0.010000
vt 0.296822 0.014612
vt 0.341844 0.028269
vt 0.383337 0.050447
vt 0.419706 0.080294
vt 0.449553 0.116663
vt 0.485388 0.203178
vt 0.490000 0.250000
vt 0.485388 0.296822
vt 0.471731 0.341844
vt 0.449553 0.383337
vt 0.419706 0.419706
vt 0.383337 0.449553
vt 0.000000 1.000000
vt 0.750000 0.490000
vt 0.796822 0.485388
vt 0.841844 0.471731
vt 0.883337 0.449553
vt 0.919706 0.419706
vt 0.949553 0.383337
vt 0.971731 0.341844
vt 0.985388 0.296822
vt 0.990000 0.250000
vt 0.985388 0.203178
vt 0.971731 0.158156
vt 0.949553 0.116663
vt 0.919706 0.080294
vt 0.883337 0.050447
vt 0.841844 0.028269
vt 0.750000 0.010000
vt 0.703178 0.014612
vt 0.658156 0.028269
vt 0.616663 0.050447
vt 0.580294 0.080294
vt 0.550447 0.116663
vt 0.528269 0.158156
vt 0.510000 0.250000
vt 0.514612 0.296822
vt 0.528269 0.341844
vt 0.550447 0.383337
vt 0.580294 0.419706
vt 0.616663 0.449553
vt 0.658156 0.471731
s 0
f 27/39/14 30/40/14 29/41/14
f 29/41/15 34/42/15 33/43/15
f 34/42/16 31/44/16 33/43/16
f 32/45/17 27/46/17 31/44/17
f 33/43/18 27/47/18 29/48/18
f 30/49/19 32/45/19 34/42/19
f 36/50/20 37/51/20 35/52/20
f 38/53/21 39/54/21 37/51/21
f 40/55/22 41/56/22 39/54/22
f 42/57/23 43/49/23 41/56/23
f 44/58/24 45/59/24 43/49/24
f 46/60/25 47/61/25 45/59/25
f 48/62/26 49/63/26 47/61/26
f 50/64/27 51/65/27 49/63/27
f 52/66/28 53/67/28 51/65/28
f 54/68/29 55/69/29 53/67/29
f 56/70/30 57/71/30 55/69/30
f 58/72/31 59/42/31 57/71/31
f 60/73/32 61/74/32 59/42/32
f 62/75/33 63/76/33 61/74/33
f 64/77/34 65/78/34 63/76/34
f 66/79/35 67/80/35 65/78/35
f 68/81/36 69/82/36 67/80/36
f 70/83/37 71/84/37 69/82/37
f 72/85/38 73/86/38 71/84/38
f 74/87/39 75/43/39 73/86/39
f 76/46/40 77/88/40 75/43/40
f 78/89/41 79/90/41 77/88/41
f 80/91/42 81/92/42 79/90/42
f 82/93/43 83/94/43 81/92/43
f 84/95/44 85/96/44 83/94/44
f 86/97/45 87/98/45 85/96/45
f 88/99/46 89/100/46 87/98/46
f 90/101/47 91/48/47 89/100/47
f 92/102/48 93/103/48 91/48/48
f 94/104/49 95/105/49 93/103/49
f 72/106/15 56/107/15 40/108/15
f 96/109/50 97/110/50 95/105/50
f 98/111/51 35/112/51 97/110/51
f 65/113/17 81/114/17 97/115/17
f 100/50/52 101/51/52 99/52/52
f 102/53/53 103/54/53 101/51/53
f 104/55/54 105/56/54 103/54/54
f 106/57/55 107/49/55 105/56/55
f 108/58/56 109/59/56 107/49/56
f 110/60/57 111/61/57 109/59/57
f 112/62/58 113/63/58 111/61/58
f 114/64/59 115/65/59 113/63/59
f 116/66/60 117/67/60 115/65/60
f 118/68/61 119/69/61 117/67/61
f 120/70/62 121/71/62 119/69/62
f 122/72/63 123/42/63 121/71/63
f 124/73/64 125/74/64 123/42/64
f 126/75/65 127/76/65 125/74/65
f 128/77/66 129/78/66 127/76/66
f 130/79/67 131/80/67 129/78/67
f 132/81/68 133/82/68 131/80/68
f 134/83/69 135/84/69 133/82/69
f 136/85/70 137/86/70 135/84/70
f 138/87/71 139/43/71 137/86/71
f 140/46/72 141/88/72 139/43/72
f 142/89/73 143/90/73 141/88/73
f 144/91/74 145/92/74 143/90/74
f 146/93/75 147/94/75 145/92/75
f 148/95/76 149/96/76 147/94/76
f 150/97/77 151/98/77 149/96/77
f 152/99/78 153/100/78 151/98/78
f 154/101/79 155/48/79 153/100/79
f 156/102/80 157/103/80 155/48/80
f 158/104/81 159/105/81 157/103/81
f 136/106/19 120/107/19 104/108/19
f 160/109/82 161/110/82 159/105/82
f 162/111/83 99/112/83 161/110/83
f 129/113/18 145/114/18 161/115/18
f 164/116/18 165/41/18 163/39/18
f 166/40/14 169/43/14 165/41/14
f 170/42/19 167/44/19 169/43/19
f 168/45/16 163/46/16 167/44/16
f 169/43/15 163/47/15 165/48/15
f 166/49/17 168/45/17 170/42/17
f 172/50/84 173/51/84 171/52/84
f 174/53/85 175/54/85 173/51/85
f 176/55/86 177/56/86 175/54/86
f 178/57/87 179/49/87 177/56/87
f 180/58/88 181/59/88 179/49/88
f 182/60/89 183/61/89 181/59/89
f 184/62/90 185/63/90 183/61/90
f 186/64/91 187/65/91 185/63/91
f 188/66/92 189/67/92 187/65/92
f 190/68/93 191/69/93 189/67/93
f 192/70/94 193/71/94 191/69/94
f 194/72/95 195/42/95 193/71/95
f 196/73/96 197/74/96 195/42/96
f 198/75/97 199/76/97 197/74/97
f 200/77/98 201/78/98 199/76/98
f 202/79/99 203/80/99 201/78/99
f 204/81/100 205/82/100 203/80/100
f 205/82/101 208/85/101 207/84/101
f 207/84/102 210/87/102 209/86/102
f 210/87/103 211/43/103 209/86/103
f 212/46/104 213/88/104 211/43/104
f 213/88/105 216/91/105 215/90/105
f 215/90/106 218/93/106 217/92/106
f 218/93/107 219/94/107 217/92/107
f 220/95/108 221/96/108 219/94/108
f 222/97/109 223/98/109 221/96/109
f 224/99/110 225/100/110 223/98/110
f 226/101/111 227/48/111 225/100/111
f 228/102/112 229/103/112 227/48/112
f 230/104/113 231/105/113 229/103/113
f 208/106/14 192/107/14 176/108/14
f 232/109/114 233/110/114 231/105/114
f 234/111/115 171/112/115 233/110/115
f 201/113/16 217/114/16 233/115/16
f 236/116/18 237/41/18 235/39/18
f 238/40/14 241/43/14 237/41/14
f 242/42/19 239/44/19 241/43/19
f 240/45/16 235/46/16 239/44/16
f 241/43/15 235/47/15 237/48/15
f 238/49/17 240/45/17 242/42/17
f 27/39/14 28/116/14 30/40/14
f 29/41/15 30/40/15 34/42/15
f 34/42/16 32/45/16 31/44/16
f 32/45/17 28/73/17 27/46/17
f 33/43/18 31/44/18 27/47/18
f 30/49/19 28/117/19 32/45/19
f 36/50/20 38/53/20 37/51/20
f 38/53/21 40/55/21 39/54/21
f 40/55/22 42/57/22 41/56/22
f 42/57/23 44/58/23 43/49/23
f 44/58/24 46/60/24 45/59/24
f 46/60/25 48/62/25 47/61/25
f 48/62/26 50/64/26 49/63/26
f 50/64/27 52/66/27 51/65/27
f 52/66/28 54/68/28 53/67/28
f 54/68/29 56/70/29 55/69/29
f 56/70/30 58/72/30 57/71/30
f 58/72/31 60/73/31 59/42/31
f 60/73/32 62/75/32 61/74/32
f 62/75/33 64/77/33 63/76/33
f 64/77/34 66/79/34 65/78/34
f 66/79/35 68/81/35 67/80/35
f 68/81/36 70/83/36 69/82/36
f 70/83/37 72/85/37 71/84/37
f 72/85/38 74/87/38 73/86/38
f 74/87/39 76/46/39 75/43/39
f 76/46/40 78/89/40 77/88/40
f 78/89/41 80/91/41 79/90/41
f 80/91/42 82/93/42 81/92/42
f 82/93/43 84/95/43 83/94/43
f 84/95/44 86/97/44 85/96/44
f 86/97/45 88/99/45 87/98/45
f 88/99/46 90/101/46 89/100/46
f 90/101/47 92/102/47 91/48/47
f 92/102/48 94/104/48 93/103/48
f 94/104/49 96/109/49 95/105/49
f 40/108/116 38/118/116 36/119/116
f 36/119/116 98/120/116 96/121/116
f 96/121/116 94/122/116 92/123/116
f 92/123/15 90/124/15 88/125/15
f 88/125/15 86/126/15 84/127/15
f 84/127/15 82/128/15 80/129/15
f 80/129/15 78/130/15 76/131/15
f 76/131/117 74/132/117 72/106/117
f 72/106/117 70/133/117 68/134/117
f 68/134/117 66/135/117 64/136/117
f 64/136/117 62/137/117 60/138/117
f 60/138/15 58/139/15 56/107/15
f 56/107/15 54/140/15 52/141/15
f 52/141/15 50/142/15 48/143/15
f 48/143/15 46/144/15 44/145/15
f 44/145/116 42/146/116 40/108/116
f 40/108/15 36/119/15 96/121/15
f 96/121/15 92/123/15 88/125/15
f 88/125/15 84/127/15 80/129/15
f 80/129/15 76/131/15 72/106/15
f 72/106/15 68/134/15 64/136/15
f 64/136/15 60/138/15 56/107/15
f 56/107/15 52/141/15 48/143/15
f 48/143/15 44/145/15 40/108/15
f 40/108/15 96/121/15 88/125/15
f 88/125/15 80/129/15 72/106/15
f 72/106/15 64/136/15 56/107/15
f 56/107/15 48/143/15 40/108/15
f 40/108/15 88/125/15 72/106/15
f 96/109/50 98/111/50 97/110/50
f 98/111/51 36/147/51 35/112/51
f 97/115/17 35/148/17 37/149/17
f 37/149/118 39/150/118 41/151/118
f 41/151/118 43/152/118 45/153/118
f 45/153/17 47/154/17 49/155/17
f 49/155/17 51/156/17 53/157/17
f 53/157/17 55/158/17 57/159/17
f 57/159/119 59/160/119 61/161/119
f 61/161/119 63/162/119 65/113/119
f 65/113/17 67/163/17 69/164/17
f 69/164/119 71/165/119 73/166/119
f 73/166/119 75/167/119 77/168/119
f 77/168/17 79/169/17 81/114/17
f 81/114/17 83/170/17 85/171/17
f 85/171/17 87/172/17 89/173/17
f 89/173/118 91/174/118 93/175/118
f 93/175/118 95/176/118 97/115/118
f 97/115/17 37/149/17 41/151/17
f 41/151/17 45/153/17 49/155/17
f 49/155/17 53/157/17 57/159/17
f 57/159/17 61/161/17 65/113/17
f 65/113/17 69/164/17 73/166/17
f 73/166/17 77/168/17 81/114/17
f 81/114/17 85/171/17 89/173/17
f 89/173/17 93/175/17 97/115/17
f 97/115/17 41/151/17 49/155/17
f 49/155/17 57/159/17 65/113/17
f 65/113/17 73/166/17 81/114/17
f 81/114/17 89/173/17 97/115/17
f 97/115/17 49/155/17 65/113/17
f 100/50/52 102/53/52 101/51/52
f 102/53/53 104/55/53 103/54/53
f 104/55/54 106/57/54 105/56/54
f 106/57/55 108/58/55 107/49/55
f 108/58/56 110/60/56 109/59/56
f 110/60/57 112/62/57 111/61/57
f 112/62/58 114/64/58 113/63/58
f 114/64/59 116/66/59 115/65/59
f 116/66/60 118/68/60 117/67/60
f 118/68/61 120/70/61 119/69/61
f 120/70/62 122/72/62 121/71/62
f 122/72/63 124/73/63 123/42/63
f 124/73/64 126/75/64 125/74/64
f 126/75/65 128/77/65 127/76/65
f 128/77/66 130/79/66 129/78/66
f 130/79/67 132/81/67 131/80/67
f 132/81/68 134/83/68 133/82/68
f 134/83/69 136/85/69 135/84/69
f 136/85/70 138/87/70 137/86/70
f 138/87/71 140/46/71 139/43/71
f 140/46/72 142/89/72 141/88/72
f 142/89/73 144/91/73 143/90/73
f 144/91/74 146/93/74 145/92/74
f 146/93/75 148/95/75 147/94/75
f 148/95/76 150/97/76 149/96/76
f 150/97/77 152/99/77 151/98/77
f 152/99/78 154/101/78 153/100/78
f 154/101/79 156/102/79 155/48/79
f 156/102/80 158/104/80 157/103/80
f 158/104/81 160/109/81 159/105/81
f 104/108/19 102/118/19 100/119/19
f 100/119/19 162/120/19 160/121/19
f 160/121/19 158/122/19 156/123/19
f 156/123/19 154/124/19 152/125/19
f 152/125/19 150/126/19 148/127/19
f 148/127/19 146/128/19 144/129/19
f 144/129/19 142/130/19 140/131/19
f 140/131/19 138/132/19 136/106/19
f 136/106/19 134/133/19 132/134/19
f 132/134/19 130/135/19 128/136/19
f 128/136/19 126/137/19 124/138/19
f 124/138/19 122/139/19 120/107/19
f 120/107/19 118/140/19 116/141/19
f 116/141/19 114/142/19 112/143/19
f 112/143/19 110/144/19 108/145/19
f 108/145/19 106/146/19 104/108/19
f 104/108/19 100/119/19 160/121/19
f 160/121/19 156/123/19 152/125/19
f 152/125/19 148/127/19 144/129/19
f 144/129/19 140/131/19 136/106/19
f 136/106/19 132/134/19 128/136/19
f 128/136/19 124/138/19 120/107/19
f 120/107/19 116/141/19 112/143/19
f 112/143/19 108/145/19 104/108/19
f 104/108/19 160/121/19 152/125/19
f 152/125/19 144/129/19 136/106/19
f 136/106/19 128/136/19 120/107/19
f 120/107/19 112/143/19 104/108/19
f 104/108/19 152/125/19 136/106/19
f 160/109/82 162/111/82 161/110/82
f 162/111/83 100/147/83 99/112/83
f 161/115/18 99/148/18 101/149/18
f 101/149/18 103/150/18 105/151/18
f 105/151/18 107/152/18 109/153/18
f 109/153/18 111/154/18 113/155/18
f 113/155/18 115/156/18 117/157/18
f 117/157/18 119/158/18 121/159/18
f 121/159/18 123/160/18 125/161/18
f 125/161/18 127/162/18 129/113/18
f 129/113/18 131/163/18 133/164/18
f 133/164/18 135/165/18 137/166/18
f 137/166/18 139/167/18 141/168/18
f 141/168/18 143/169/18 145/114/18
f 145/114/18 147/170/18 149/171/18
f 149/171/18 151/172/18 153/173/18
f 153/173/18 155/174/18 157/175/18
f 157/175/18 159/176/18 161/115/18
f 161/115/18 101/149/18 105/151/18
f 105/151/18 109/153/18 113/155/18
f 113/155/18 117/157/18 121/159/18
f 121/159/18 125/161/18 129/113/18
f 129/113/18 133/164/18 137/166/18
f 137/166/18 141/168/18 145/114/18
f 145/114/18 149/171/18 153/173/18
f 153/173/18 157/175/18 161/115/18
f 161/115/18 105/151/18 113/155/18
f 113/155/18 121/159/18 129/113/18
f 129/113/18 137/166/18 145/114/18
f 145/114/18 153/173/18 161/115/18
f 161/115/18 113/155/18 129/113/18
f 164/116/18 166/40/18 165/41/18
f 166/40/14 170/42/14 169/43/14
f 170/42/19 168/45/19 167/44/19
f 168/45/16 164/73/16 163/46/16
f 169/43/15 167/44/15 163/47/15
f 166/49/17 164/117/17 168/45/17
f 172/50/84 174/53/84 173/51/84
f 174/53/85 176/55/85 175/54/85
f 176/55/120 178/57/120 177/56/120
f 178/57/87 180/58/87 179/49/87
f 180/58/88 182/60/88 181/59/88
f 182/60/89 184/62/89 183/61/89
f 184/62/90 186/64/90 185/63/90
f 186/64/91 188/66/91 187/65/91
f 188/66/92 190/68/92 189/67/92
f 190/68/93 192/70/93 191/69/93
f 192/70/94 194/72/94 193/71/94
f 194/72/121 196/73/121 195/42/121
f 196/73/96 198/75/96 197/74/96
f 198/75/97 200/77/97 199/76/97
f 200/77/98 202/79/98 201/78/98
f 202/79/99 204/81/99 203/80/99
f 204/81/100 206/83/100 205/82/100
f 205/82/101 206/83/101 208/85/101
f 207/84/102 208/85/102 210/87/102
f 210/87/103 212/46/103 211/43/103
f 212/46/122 214/89/122 213/88/122
f 213/88/105 214/89/105 216/91/105
f 215/90/106 216/91/106 218/93/106
f 218/93/107 220/95/107 219/94/107
f 220/95/108 222/97/108 221/96/108
f 222/97/109 224/99/109 223/98/109
f 224/99/110 226/101/110 225/100/110
f 226/101/111 228/102/111 227/48/111
f 228/102/112 230/104/112 229/103/112
f 230/104/123 232/109/123 231/105/123
f 176/108/124 174/118/124 172/119/124
f 172/119/14 234/120/14 232/121/14
f 232/121/14 230/122/14 228/123/14
f 228/123/125 226/124/125 224/125/125
f 224/125/14 222/126/14 220/127/14
f 220/127/14 218/128/14 216/129/14
f 216/129/14 214/130/14 212/131/14
f 212/131/14 210/132/14 208/106/14
f 208/106/126 206/133/126 204/134/126
f 204/134/126 202/135/126 200/136/126
f 200/136/14 198/137/14 196/138/14
f 196/138/127 194/139/127 192/107/127
f 192/107/14 190/140/14 188/141/14
f 188/141/14 186/142/14 184/143/14
f 184/143/125 182/144/125 180/145/125
f 180/145/14 178/146/14 176/108/14
f 176/108/14 172/119/14 232/121/14
f 232/121/14 228/123/14 224/125/14
f 224/125/14 220/127/14 216/129/14
f 216/129/14 212/131/14 208/106/14
f 208/106/14 204/134/14 200/136/14
f 200/136/14 196/138/14 192/107/14
f 192/107/14 188/141/14 184/143/14
f 184/143/14 180/145/14 176/108/14
f 176/108/14 232/121/14 224/125/14
f 224/125/14 216/129/14 208/106/14
f 208/106/14 200/136/14 192/107/14
f 192/107/14 184/143/14 176/108/14
f 176/108/14 224/125/14 208/106/14
f 232/109/114 234/111/114 233/110/114
f 234/111/115 172/147/115 171/112/115
f 233/115/16 171/148/16 173/149/16
f 173/149/16 175/150/16 177/151/16
f 177/151/128 179/152/128 181/153/128
f 181/153/16 183/154/16 185/155/16
f 185/155/16 187/156/16 189/157/16
f 189/157/16 191/158/16 193/159/16
f 193/159/129 195/160/129 197/161/129
f 197/161/129 199/162/129 201/113/129
f 201/113/16 203/163/16 205/164/16
f 205/164/129 207/165/129 209/166/129
f 209/166/129 211/167/129 213/168/129
f 213/168/16 215/169/16 217/114/16
f 217/114/16 219/170/16 221/171/16
f 221/171/16 223/172/16 225/173/16
f 225/173/129 227/174/129 229/175/129
f 229/175/16 231/176/16 233/115/16
f 233/115/16 173/149/16 177/151/16
f 177/151/16 181/153/16 185/155/16
f 185/155/16 189/157/16 193/159/16
f 193/159/16 197/161/16 201/113/16
f 201/113/16 205/164/16 209/166/16
f 209/166/16 213/168/16 217/114/16
f 217/114/16 221/171/16 225/173/16
f 225/173/16 229/175/16 233/115/16
f 233/115/16 177/151/16 185/155/16
f 185/155/16 193/159/16 201/113/16
f 201/113/16 209/166/16 217/114/16
f 217/114/16 225/173/16 233/115/16
f 233/115/16 185/155/16 201/113/16
f 236/116/18 238/40/18 237/41/18
f 238/40/14 242/42/14 241/43/14
f 242/42/19 240/45/19 239/44/19
f 240/45/16 236/73/16 235/46/16
f 241/43/15 239/44/15 235/47/15
f 238/49/17 236/117/17 240/45/17
o Куб.003
v -0.363336 0.191261 2.345200
v -0.363336 0.648174 2.345200
v -0.363336 0.191261 1.345200
v -0.363336 0.648174 1.345200
v 0.636664 0.191261 2.345200
v 0.636664 0.648174 2.345200
v 0.636664 0.191261 1.345200
v 0.636664 0.648174 1.345200
vn -1.0000 -0.0000 -0.0000
vn -0.0000 -0.0000 -1.0000
vn 1.0000 -0.0000 -0.0000
vn -0.0000 -0.0000 1.0000
vn -0.0000 -1.0000 -0.0000
vn -0.0000 1.0000 -0.0000
vt 0.625000 0.000000
vt 0.375000 0.250000
vt 0.375000 0.000000
vt 0.625000 0.250000
vt 0.375000 0.500000
vt 0.625000 0.500000
vt 0.375000 0.750000
vt 0.625000 0.750000
vt 0.375000 1.000000
vt 0.125000 0.750000
vt 0.125000 0.500000
vt 0.875000 0.500000
vt 0.625000 1.000000
vt 0.875000 0.750000
s 0
f 244/177/130 245/178/130 243/179/130
f 246/180/131 249/181/131 245/178/131
f 250/182/132 247/183/132 249/181/132
f 248/184/133 243/185/133 247/183/133
f 249/181/134 243/186/134 245/187/134
f 246/188/135 248/184/135 250/182/135
f 244/177/130 246/180/130 245/178/130
f 246/180/131 250/182/131 249/181/131
f 250/182/132 248/184/132 247/183/132
f 248/184/133 244/189/133 243/185/133
f 249/181/134 247/183/134 243/186/134
f 246/188/135 244/190/135 248/184/135
