# Blender 5.1.0
# www.blender.org
mtllib Вариант 18 ЧПУ 2000VH.mtl
o Куб.001
v -0.855459 0.233167 6.004951
v -0.855459 0.233167 4.004951
v -0.855459 4.249835 4.004951
v 1.144541 0.233167 6.004951
v 1.144541 0.233167 4.004951
v 1.144541 4.249835 4.004951
v -0.855839 -0.250165 6.011072
v -0.855839 0.251919 6.011072
v -0.855839 -0.250165 0.011071
v -0.855839 0.251919 0.011071
v 1.144161 -0.250165 6.011072
v 1.144161 0.251919 6.011072
v 1.144161 -0.250165 0.011071
v 1.144161 0.251919 0.011071
v -0.855459 4.249835 5.243391
v -0.855459 2.230697 6.004951
v 1.144541 4.249835 5.243391
v 1.144541 2.230697 6.004951
vn -1.0000 -0.0000 -0.0000
vn -0.0000 -0.0000 -1.0000
vn 1.0000 -0.0000 -0.0000
vn -0.0000 -0.0000 1.0000
vn -0.0000 -1.0000 -0.0000
vn -0.0000 1.0000 -0.0000
vn -0.0000 0.3529 0.9357
vt 0.625000 0.250000
vt 0.375000 0.000000
vt 0.499328 0.000000
vt 0.375000 0.500000
vt 0.375000 0.250000
vt 0.375000 0.750000
vt 0.625000 0.500000
vt 0.625000 0.654805
vt 0.375000 1.000000
vt 0.499328 0.750000
vt 0.499328 1.000000
vt 0.125000 0.750000
vt 0.125000 0.500000
vt 0.875000 0.654805
vt 0.625000 0.000000
vt 0.625000 0.750000
vt 0.875000 0.500000
vt 0.475235 0.824705
vt 0.621311 0.960086
vt 0.621311 0.824704
vt 0.625000 0.095195
vt 0.625000 1.000000
vt 0.875000 0.750000
vt 0.475235 0.960086
s 0
usemtl 
f 3/1/1 1/2/1 16/3/1
f 3/1/2 5/4/2 2/5/2
f 4/6/3 6/7/3 17/8/3
f 1/9/4 18/10/4 16/11/4
f 5/4/5 1/12/5 2/13/5
f 6/7/6 15/14/6 17/8/6
f 8/15/1 9/5/1 7/2/1
f 10/1/2 13/4/2 9/5/2
f 14/7/3 11/6/3 13/4/3
f 12/16/4 7/9/4 11/6/4
f 13/4/5 7/12/5 9/13/5
f 10/17/6 12/16/6 14/7/6
f 17/18/7 16/19/7 18/20/7
f 16/3/1 15/21/1 3/1/1
f 3/1/1 2/5/1 1/2/1
f 3/1/2 6/7/2 5/4/2
f 17/8/3 18/10/3 4/6/3
f 4/6/3 5/4/3 6/7/3
f 1/9/4 4/6/4 18/10/4
f 5/4/5 4/6/5 1/12/5
f 6/7/6 3/17/6 15/14/6
f 8/15/1 10/1/1 9/5/1
f 10/1/2 14/7/2 13/4/2
f 14/7/3 12/16/3 11/6/3
f 12/16/4 8/22/4 7/9/4
f 13/4/5 11/6/5 7/12/5
f 10/17/6 8/23/6 12/16/6
f 17/18/7 15/24/7 16/19/7
o Куб.003
v -0.313087 0.225318 2.330025
v -0.313087 0.725318 2.330025
v -0.313087 0.225318 1.330025
v -0.313087 0.725318 1.330025
v 0.686913 0.225318 2.330025
v 0.686913 0.725318 2.330025
v 0.686913 0.225318 1.330025
v 0.686913 0.725318 1.330025
v -0.758302 0.808965 2.710841
v -0.758302 0.658790 2.710841
v -0.758302 0.808965 0.910841
v -0.758302 0.658790 0.910841
v 1.041698 0.808965 2.710841
v 1.041698 0.658790 2.710841
v 1.041698 0.808965 0.910841
v 1.041698 0.658790 0.910841
vn -1.0000 -0.0000 -0.0000
vn -0.0000 -0.0000 -1.0000
vn 1.0000 -0.0000 -0.0000
vn -0.0000 -0.0000 1.0000
vn -0.0000 -1.0000 -0.0000
vn -0.0000 1.0000 -0.0000
vt 0.625000 0.000000
vt 0.375000 0.250000
vt 0.375000 0.000000
vt 0.625000 0.250000
vt 0.375000 0.500000
vt 0.625000 0.500000
vt 0.375000 0.750000
vt 0.625000 0.750000
vt 0.375000 1.000000
vt 0.125000 0.750000
vt 0.125000 0.500000
vt 0.875000 0.500000
vt 0.625000 1.000000
vt 0.875000 0.750000
s 0
f 20/25/8 21/26/8 19/27/8
f 22/28/9 25/29/9 21/26/9
f 26/30/10 23/31/10 25/29/10
f 24/32/11 19/33/11 23/31/11
f 25/29/12 19/34/12 21/35/12
f 22/36/13 24/32/13 26/30/13
f 28/25/10 29/26/10 27/27/10
f 30/28/11 33/29/11 29/26/11
f 34/30/8 31/31/8 33/29/8
f 32/32/9 27/33/9 31/31/9
f 33/29/12 27/34/12 29/35/12
f 30/36/13 32/32/13 34/30/13
f 20/25/8 22/28/8 21/26/8
f 22/28/9 26/30/9 25/29/9
f 26/30/10 24/32/10 23/31/10
f 24/32/11 20/37/11 19/33/11
f 25/29/12 23/31/12 19/34/12
f 22/36/13 20/38/13 24/32/13
f 28/25/10 30/28/10 29/26/10
f 30/28/11 34/30/11 33/29/11
f 34/30/8 32/32/8 31/31/8
f 32/32/9 28/37/9 27/33/9
f 33/29/12 31/31/12 27/34/12
f 30/36/13 28/38/13 32/32/13
o Куб.002
v 1.227142 2.664428 3.584921
v 1.227142 3.662553 3.584921
v 1.227142 2.664428 4.633322
v 1.227142 3.662553 4.633322
v -1.215252 2.664428 3.584921
v -1.215252 3.662553 3.584921
v -1.215252 2.664428 4.633322
v -1.215252 3.662553 4.633322
vn 1.0000 -0.0000 -0.0000
vn -0.0000 -0.0000 1.0000
vn -1.0000 -0.0000 -0.0000
vn -0.0000 -0.0000 -1.0000
vn -0.0000 -1.0000 -0.0000
vn -0.0000 1.0000 -0.0000
vt 0.625000 0.000000
vt 0.375000 0.250000
vt 0.375000 0.000000
vt 0.625000 0.250000
vt 0.375000 0.500000
vt 0.625000 0.500000
vt 0.375000 0.750000
vt 0.625000 0.750000
vt 0.375000 1.000000
vt 0.125000 0.750000
vt 0.125000 0.500000
vt 0.875000 0.500000
vt 0.625000 1.000000
vt 0.875000 0.750000
s 0
f 36/39/14 37/40/14 35/41/14
f 38/42/15 41/43/15 37/40/15
f 42/44/16 39/45/16 41/43/16
f 40/46/17 35/47/17 39/45/17
f 41/43/18 35/48/18 37/49/18
f 38/50/19 40/46/19 42/44/19
f 36/39/14 38/42/14 37/40/14
f 38/42/15 42/44/15 41/43/15
f 42/44/16 40/46/16 39/45/16
f 40/46/17 36/51/17 35/47/17
f 41/43/18 39/45/18 35/48/18
f 38/50/19 36/52/19 40/46/19
o Куб.004
v -0.011711 2.827724 3.680907
v -0.011711 2.927724 3.780907
v -0.111711 2.927724 3.680907
v -0.011711 3.400851 3.780907
v -0.011711 3.500851 3.680907
v -0.111711 3.400851 3.680907
v -0.011711 2.827724 3.179708
v -0.111711 2.927724 3.179708
v -0.011711 2.927724 3.079709
v -0.011711 3.500851 3.179708
v -0.011711 3.400851 3.079709
v -0.111711 3.400851 3.179708
v 0.188289 2.827724 3.680907
v 0.288289 2.927724 3.680907
v 0.188289 2.927724 3.780907
v 0.188289 3.500851 3.680907
v 0.188289 3.400851 3.780907
v 0.288289 3.400851 3.680907
v 0.188289 2.827724 3.179708
v 0.188289 2.927724 3.079709
v 0.288289 2.927724 3.179708
v 0.188289 3.500851 3.179708
v 0.288289 3.400851 3.179708
v 0.188289 3.400851 3.079709
vn -0.5774 -0.5774 0.5774
vn -0.5774 0.5774 0.5774
vn -0.5774 -0.5774 -0.5774
vn -0.5774 0.5774 -0.5774
vn 0.5774 -0.5774 0.5774
vn 0.5774 0.5774 0.5774
vn 0.5774 -0.5774 -0.5774
vn 0.5774 0.5774 -0.5774
vn -0.7071 -0.7071 -0.0000
vn -0.7071 -0.0000 0.7071
vn -0.7071 0.7071 -0.0000
vn -0.7071 -0.0000 -0.7071
vn -0.0000 -0.7071 -0.7071
vn -0.0000 0.7071 -0.7071
vn 0.7071 -0.0000 -0.7071
vn 0.7071 -0.7071 -0.0000
vn 0.7071 0.7071 -0.0000
vn 0.7071 -0.0000 0.7071
vn -0.0000 -0.7071 0.7071
vn -0.0000 0.7071 0.7071
vn -0.0000 -1.0000 -0.0000
vn -1.0000 -0.0000 -0.0000
vn -0.0000 -0.0000 1.0000
vn -0.0000 1.0000 -0.0000
vn -0.0000 -0.0000 -1.0000
vn 1.0000 -0.0000 -0.0000
vt 0.187500 0.714347
vt 0.187500 0.750000
vt 0.125000 0.714347
vt 0.587860 0.000000
vt 0.625000 0.035653
vt 0.587860 0.035653
vt 0.187500 0.535653
vt 0.125000 0.535653
vt 0.187500 0.500000
vt 0.625000 0.247065
vt 0.587860 0.296875
vt 0.587860 0.214347
vt 0.312500 0.714347
vt 0.402855 0.714347
vt 0.362320 0.781250
vt 0.656250 0.763423
vt 0.587860 0.812500
vt 0.587860 0.723260
vt 0.312500 0.535653
vt 0.362320 0.468750
vt 0.402855 0.535653
vt 0.656250 0.486577
vt 0.587860 0.526740
vt 0.587860 0.437500
vt 0.412140 0.035653
vt 0.412140 0.000000
vt 0.412140 0.312500
vt 0.625000 0.937500
vt 0.412140 0.214347
vt 0.412140 0.937500
vt 0.812500 0.535653
vt 0.587860 0.937500
vt 0.812500 0.714347
s 0
f 43/53/20 44/54/20 45/55/20
f 46/56/21 47/57/21 48/58/21
f 49/59/22 50/60/22 51/61/22
f 52/62/23 53/63/23 54/64/23
f 55/65/24 56/66/24 57/67/24
f 58/68/25 59/69/25 60/70/25
f 61/71/26 62/72/26 63/73/26
f 64/74/27 65/75/27 66/76/27
f 43/53/28 50/60/28 49/59/28
f 46/56/29 45/77/29 44/78/29
f 52/62/30 48/58/30 47/57/30
f 51/79/31 54/64/31 53/63/31
f 49/59/32 62/72/32 61/71/32
f 64/74/33 53/63/33 52/62/33
f 63/73/34 66/76/34 65/75/34
f 61/71/35 56/66/35 55/65/35
f 58/68/36 65/75/36 64/74/36
f 57/67/37 60/70/37 59/69/37
f 55/65/38 44/54/38 43/53/38
f 47/80/39 59/69/39 58/68/39
f 61/71/40 43/53/40 49/59/40
f 48/58/41 50/81/41 45/77/41
f 59/69/42 44/82/42 57/67/42
f 52/83/43 58/68/43 64/74/43
f 53/63/44 62/72/44 51/79/44
f 65/75/45 56/66/45 63/73/45
f 43/53/28 45/55/28 50/60/28
f 46/56/29 48/58/29 45/77/29
f 52/62/30 54/64/30 48/58/30
f 51/79/31 50/81/31 54/64/31
f 49/59/32 51/61/32 62/72/32
f 64/74/33 66/76/33 53/63/33
f 63/73/34 62/72/34 66/76/34
f 61/71/35 63/73/35 56/66/35
f 58/68/36 60/70/36 65/75/36
f 57/67/37 56/66/37 60/70/37
f 55/65/38 57/67/38 44/54/38
f 47/80/39 46/84/39 59/69/39
f 61/71/40 55/65/40 43/53/40
f 48/58/41 54/64/41 50/81/41
f 59/69/42 46/84/42 44/82/42
f 52/83/43 47/85/43 58/68/43
f 53/63/44 66/76/44 62/72/44
f 65/75/45 60/70/45 56/66/45
o Куб.005
v -0.065328 3.002727 2.959683
v 0.270035 3.002727 2.959683
v -0.065328 2.805972 2.959683
v 0.270035 2.805972 2.959683
v -0.065328 3.002727 3.253016
v 0.270035 3.002727 3.253016
v -0.065328 2.805972 3.253016
v 0.270035 2.805972 3.253016
v 0.023072 2.959152 3.102146
v 0.023072 2.766889 3.102146
v 0.024590 2.959152 3.117980
v 0.024590 2.766889 3.117980
v 0.029084 2.959152 3.133205
v 0.029084 2.766889 3.133205
v 0.036383 2.959152 3.147237
v 0.036383 2.766889 3.147237
v 0.046205 2.959152 3.159537
v 0.046205 2.766889 3.159537
v 0.058174 2.959152 3.169630
v 0.058174 2.766889 3.169630
v 0.071829 2.959152 3.177130
v 0.071829 2.766889 3.177130
v 0.086645 2.959152 3.181749
v 0.086645 2.766889 3.181749
v 0.102054 2.959152 3.183309
v 0.102054 2.766889 3.183309
v 0.117462 2.959152 3.181749
v 0.117462 2.766889 3.181749
v 0.132279 2.959152 3.177130
v 0.132279 2.766889 3.177130
v 0.145934 2.959152 3.169630
v 0.145934 2.766889 3.169630
v 0.157902 2.959152 3.159537
v 0.157902 2.766889 3.159537
v 0.167725 2.959152 3.147237
v 0.167725 2.766889 3.147237
v 0.175023 2.959152 3.133205
v 0.175023 2.766889 3.133205
v 0.179518 2.959152 3.117980
v 0.179518 2.766889 3.117980
v 0.181036 2.959152 3.102146
v 0.181036 2.766889 3.102146
v 0.179518 2.959152 3.086312
v 0.179518 2.766889 3.086312
v 0.175023 2.959152 3.071086
v 0.175023 2.766889 3.071086
v 0.167725 2.959152 3.057054
v 0.167725 2.766889 3.057054
v 0.157902 2.959152 3.044755
v 0.157902 2.766889 3.044755
v 0.145934 2.959152 3.034661
v 0.145934 2.766889 3.034661
v 0.132279 2.959152 3.027161
v 0.132279 2.766889 3.027161
v 0.117462 2.959152 3.022542
v 0.117462 2.766889 3.022542
v 0.102054 2.959152 3.020983
v 0.102054 2.766889 3.020983
v 0.086645 2.959152 3.022542
v 0.086645 2.766889 3.022542
v 0.071829 2.959152 3.027161
v 0.071829 2.766889 3.027161
v 0.058174 2.959152 3.034661
v 0.058174 2.766889 3.034661
v 0.046205 2.959152 3.044755
v 0.046205 2.766889 3.044755
v 0.036383 2.959152 3.057054
v 0.036383 2.766889 3.057054
v 0.029084 2.959152 3.071086
v 0.029084 2.766889 3.071086
v 0.024590 2.959152 3.086312
v 0.024590 2.766889 3.086312
v -0.202706 3.421610 2.982417
v 0.385702 3.421610 2.982417
v -0.202706 3.388800 2.934985
v 0.385702 3.388800 2.934985
v -0.202706 3.347367 2.894865
v 0.385702 3.347367 2.894865
v -0.202706 3.298903 2.863599
v 0.385702 3.298903 2.863599
v -0.202706 3.245271 2.842389
v 0.385702 3.245271 2.842389
v -0.202706 3.188531 2.832049
v 0.385702 3.188531 2.832049
v -0.202706 3.130865 2.832977
v 0.385702 3.130865 2.832977
v -0.202706 3.074487 2.845138
v 0.385702 3.074487 2.845138
v -0.202706 3.021566 2.868064
v 0.385702 3.021566 2.868064
v -0.202706 2.974133 2.900873
v 0.385702 2.974133 2.900873
v -0.202706 2.934014 2.942306
v 0.385702 2.934014 2.942306
v -0.202706 2.902748 2.990770
v 0.385702 2.902748 2.990770
v -0.202706 2.881537 3.044402
v 0.385702 2.881537 3.044402
v -0.202706 2.871197 3.101142
v 0.385702 2.871197 3.101142
v -0.202706 2.872126 3.158808
v 0.385702 2.872126 3.158808
v -0.202706 2.884287 3.215186
v 0.385702 2.884287 3.215186
v -0.202706 2.907212 3.268108
v 0.385702 2.907212 3.268108
v -0.202706 2.940022 3.315540
v 0.385702 2.940022 3.315540
v -0.202706 2.981455 3.355660
v 0.385702 2.981455 3.355660
v -0.202706 3.029919 3.386926
v 0.385702 3.029919 3.386926
v -0.202706 3.083551 3.408136
v 0.385702 3.083551 3.408136
v -0.202706 3.140290 3.418476
v 0.385702 3.140290 3.418476
v -0.202706 3.197957 3.417547
v 0.385702 3.197957 3.417547
v -0.202706 3.254334 3.405387
v 0.385702 3.254334 3.405387
v -0.202706 3.307256 3.382461
v 0.385702 3.307256 3.382461
v -0.202706 3.354688 3.349651
v 0.385702 3.354688 3.349651
v -0.202706 3.394809 3.308218
v 0.385702 3.394809 3.308218
v -0.202706 3.426075 3.259755
v 0.385702 3.426075 3.259755
v -0.202706 3.447285 3.206123
v 0.385702 3.447285 3.206123
v -0.202706 3.457624 3.149383
v 0.385702 3.457624 3.149383
v -0.202706 3.456696 3.091716
v 0.385702 3.456696 3.091716
v -0.202706 3.444535 3.035339
v 0.385702 3.444535 3.035339
v -0.045109 2.985771 2.936053
v -0.045109 3.321134 2.936053
v -0.045109 2.985771 2.739298
v -0.045109 3.321134 2.739298
v 0.248225 2.985771 2.936053
v 0.248225 3.321134 2.936053
v 0.248225 2.985771 2.739298
v 0.248225 3.321134 2.739298
v 0.097354 3.074171 2.892478
v 0.097354 3.074171 2.700215
v 0.113188 3.075688 2.892478
v 0.113188 3.075688 2.700215
v 0.128414 3.080183 2.892478
v 0.128414 3.080183 2.700215
v 0.142446 3.087481 2.892478
v 0.142446 3.087481 2.700215
v 0.154745 3.097304 2.892478
v 0.154745 3.097304 2.700215
v 0.164838 3.109272 2.892478
v 0.164838 3.109272 2.700215
v 0.172339 3.122927 2.892478
v 0.172339 3.122927 2.700215
v 0.176957 3.137744 2.892478
v 0.176957 3.137744 2.700215
v 0.178517 3.153152 2.892478
v 0.178517 3.153152 2.700215
v 0.176957 3.168561 2.892478
v 0.176957 3.168561 2.700215
v 0.172339 3.183377 2.892478
v 0.172339 3.183378 2.700215
v 0.164838 3.197032 2.892478
v 0.164838 3.197032 2.700215
v 0.154745 3.209001 2.892478
v 0.154745 3.209001 2.700215
v 0.142446 3.218823 2.892478
v 0.142446 3.218823 2.700215
v 0.128414 3.226122 2.892478
v 0.128414 3.226122 2.700215
v 0.113188 3.230617 2.892478
v 0.113188 3.230617 2.700215
v 0.097354 3.232134 2.892478
v 0.097354 3.232134 2.700215
v 0.081520 3.230617 2.892478
v 0.081520 3.230617 2.700215
v 0.066294 3.226122 2.892478
v 0.066294 3.226122 2.700215
v 0.052262 3.218823 2.892478
v 0.052262 3.218823 2.700215
v 0.039963 3.209001 2.892478
v 0.039963 3.209001 2.700215
v 0.029869 3.197032 2.892478
v 0.029869 3.197032 2.700215
v 0.022369 3.183377 2.892478
v 0.022369 3.183378 2.700215
v 0.017750 3.168561 2.892478
v 0.017750 3.168561 2.700215
v 0.016191 3.153152 2.892478
v 0.016191 3.153152 2.700215
v 0.017750 3.137744 2.892478
v 0.017750 3.137744 2.700215
v 0.022369 3.122927 2.892478
v 0.022369 3.122927 2.700215
v 0.029869 3.109272 2.892478
v 0.029869 3.109272 2.700215
v 0.039963 3.097304 2.892478
v 0.039963 3.097304 2.700215
v 0.052262 3.087481 2.892478
v 0.052262 3.087481 2.700215
v 0.066294 3.080183 2.892478
v 0.066294 3.080183 2.700215
v 0.081520 3.075688 2.892478
v 0.081520 3.075688 2.700215
vn -0.0000 -0.0000 -1.0000
vn -0.0000 -1.0000 -0.0000
vn -0.0000 -0.0000 1.0000
vn -0.0000 1.0000 -0.0000
vn -1.0000 -0.0000 -0.0000
vn 1.0000 -0.0000 -0.0000
vn -0.9954 -0.0000 0.0954
vn -0.9591 -0.0000 0.2831
vn -0.8872 -0.0000 0.4615
vn -0.7814 -0.0000 0.6240
vn -0.6447 -0.0000 0.7644
vn -0.4814 -0.0000 0.8765
vn -0.2976 -0.0000 0.9547
vn -0.1007 -0.0000 0.9949
vn 0.1007 -0.0000 0.9949
vn 0.2976 -0.0000 0.9547
vn 0.4814 -0.0000 0.8765
vn 0.6447 -0.0000 0.7644
vn 0.7814 -0.0000 0.6240
vn 0.8872 -0.0000 0.4615
vn 0.9591 -0.0000 0.2831
vn 0.9954 -0.0000 0.0954
vn 0.9954 -0.0000 -0.0954
vn 0.9591 -0.0000 -0.2831
vn 0.8872 -0.0000 -0.4615
vn 0.7814 -0.0000 -0.6240
vn 0.6447 -0.0000 -0.7644
vn 0.4814 -0.0000 -0.8765
vn 0.2976 -0.0000 -0.9547
vn 0.1007 -0.0000 -0.9949
vn -0.1007 -0.0000 -0.9949
vn -0.2976 -0.0000 -0.9547
vn -0.4814 -0.0000 -0.8765
vn -0.6447 -0.0000 -0.7644
vn -0.7814 -0.0000 -0.6240
vn -0.8872 -0.0000 -0.4615
vn -0.9591 -0.0000 -0.2831
vn -0.9954 -0.0000 -0.0954
vn -0.0000 0.8224 -0.5689
vn -0.0000 0.6956 -0.7184
vn -0.0000 0.5421 -0.8403
vn -0.0000 0.3678 -0.9299
vn -0.0000 0.1793 -0.9838
vn -0.0000 -0.0161 -0.9999
vn -0.0000 -0.2109 -0.9775
vn -0.0000 -0.3975 -0.9176
vn -0.0000 -0.5689 -0.8224
vn -0.0000 -0.7184 -0.6956
vn -0.0000 -0.8403 -0.5421
vn -0.0000 -0.9299 -0.3678
vn -0.0000 -0.9838 -0.1793
vn -0.0000 -0.9999 0.0161
vn -0.0000 -0.9775 0.2109
vn -0.0000 -0.9176 0.3975
vn -0.0000 -0.8224 0.5689
vn -0.0000 -0.6956 0.7184
vn -0.0000 -0.5421 0.8403
vn -0.0000 -0.3678 0.9299
vn -0.0000 -0.1793 0.9838
vn -0.0000 0.0161 0.9999
vn -0.0000 0.2109 0.9775
vn -0.0000 0.3975 0.9176
vn -0.0000 0.5689 0.8224
vn -0.0000 0.7184 0.6956
vn -0.0000 0.8403 0.5421
vn -0.0000 0.9299 0.3678
vn -0.0000 0.9838 0.1793
vn -0.0000 0.9999 -0.0161
vn -0.0000 0.9775 -0.2109
vn -0.0000 0.9176 -0.3975
vn 0.0954 -0.9954 -0.0000
vn 0.2831 -0.9591 -0.0000
vn 0.4615 -0.8872 -0.0000
vn 0.6240 -0.7814 -0.0000
vn 0.7644 -0.6447 -0.0000
vn 0.8765 -0.4814 -0.0000
vn 0.9547 -0.2976 -0.0000
vn 0.9949 -0.1007 -0.0000
vn 0.9949 0.1007 -0.0000
vn 0.9547 0.2976 -0.0000
vn 0.8765 0.4814 -0.0000
vn 0.7645 0.6447 -0.0000
vn 0.6240 0.7814 -0.0000
vn 0.4614 0.8872 -0.0000
vn 0.2831 0.9591 -0.0000
vn 0.0954 0.9954 -0.0000
vn -0.0954 0.9954 -0.0000
vn -0.2831 0.9591 -0.0000
vn -0.4614 0.8872 -0.0000
vn -0.6240 0.7814 -0.0000
vn -0.7644 0.6447 -0.0000
vn -0.8765 0.4814 -0.0000
vn -0.9547 0.2976 -0.0000
vn -0.9949 0.1007 -0.0000
vn -0.9949 -0.1007 -0.0000
vn -0.9547 -0.2976 -0.0000
vn -0.8765 -0.4814 -0.0000
vn -0.7644 -0.6447 -0.0000
vn -0.6240 -0.7814 -0.0000
vn -0.4614 -0.8872 -0.0000
vn -0.2831 -0.9591 -0.0000
vn -0.0954 -0.9954 -0.0000
vn 0.0002 -1.0000 -0.0000
vn -0.0002 -1.0000 -0.0000
vn -0.0002 1.0000 -0.0000
vn 0.0002 1.0000 -0.0000
vn 0.4614 -0.8872 -0.0000
vn 0.7644 0.6447 -0.0000
vn -0.7645 0.6447 -0.0000
vn -0.4615 -0.8872 -0.0000
vn -0.0000 0.0002 -1.0000
vn -0.0000 -0.0001 -1.0000
vn -0.0000 -0.0002 -1.0000
vn -0.0000 0.0001 -1.0000
vn -0.0000 -0.0002 1.0000
vn -0.0000 0.0002 1.0000
vt 0.375000 0.000000
vt 0.625000 0.250000
vt 0.375000 0.250000
vt 0.625000 0.500000
vt 0.375000 0.500000
vt 0.375000 0.750000
vt 0.625000 0.750000
vt 0.375000 1.000000
vt 0.125000 0.750000
vt 0.125000 0.500000
vt 0.875000 0.500000
vt 1.000000 1.000000
vt 0.968750 0.500000
vt 1.000000 0.500000
vt 0.968750 1.000000
vt 0.937500 0.500000
vt 0.937500 1.000000
vt 0.906250 0.500000
vt 0.906250 1.000000
vt 0.875000 1.000000
vt 0.843750 0.500000
vt 0.843750 1.000000
vt 0.812500 0.500000
vt 0.812500 1.000000
vt 0.781250 0.500000
vt 0.781250 1.000000
vt 0.750000 0.500000
vt 0.750000 1.000000
vt 0.718750 0.500000
vt 0.718750 1.000000
vt 0.687500 0.500000
vt 0.687500 1.000000
vt 0.656250 0.500000
vt 0.656250 1.000000
vt 0.625000 1.000000
vt 0.593750 0.500000
vt 0.593750 1.000000
vt 0.562500 0.500000
vt 0.562500 1.000000
vt 0.531250 0.500000
vt 0.531250 1.000000
vt 0.500000 0.500000
vt 0.500000 1.000000
vt 0.468750 0.500000
vt 0.468750 1.000000
vt 0.437500 0.500000
vt 0.437500 1.000000
vt 0.406250 0.500000
vt 0.406250 1.000000
vt 0.343750 0.500000
vt 0.343750 1.000000
vt 0.312500 0.500000
vt 0.312500 1.000000
vt 0.281250 0.500000
vt 0.281250 1.000000
vt 0.250000 0.500000
vt 0.250000 1.000000
vt 0.218750 0.500000
vt 0.218750 1.000000
vt 0.187500 0.500000
vt 0.187500 1.000000
vt 0.156250 0.500000
vt 0.156250 1.000000
vt 0.125000 1.000000
vt 0.093750 0.500000
vt 0.093750 1.000000
vt 0.062500 0.500000
vt 0.158156 0.028269
vt 0.471731 0.158156
vt 0.341844 0.471731
vt 0.062500 1.000000
vt 0.031250 0.500000
vt 0.031250 1.000000
vt 0.000000 0.500000
vt 0.796822 0.014612
vt 0.514612 0.203178
vt 0.703178 0.485388
vt 0.625000 0.000000
vt 0.875000 0.750000
vt 0.296822 0.485388
vt 0.250000 0.490000
vt 0.203178 0.485388
vt 0.158156 0.471731
vt 0.116663 0.449553
vt 0.080294 0.419706
vt 0.050447 0.383337
vt 0.028269 0.341844
vt 0.014612 0.296822
vt 0.010000 0.250000
vt 0.014612 0.203178
vt 0.028269 0.158156
vt 0.050447 0.116663
vt 0.080294 0.080294
vt 0.116663 0.050447
vt 0.203178 0.014612
vt 0.250000 0.010000
vt 0.296822 0.014612
vt 0.341844 0.028269
vt 0.383337 0.050447
vt 0.419706 0.080294
vt 0.449553 0.116663
vt 0.485388 0.203178
vt 0.490000 0.250000
vt 0.485388 0.296822
vt 0.471731 0.341844
vt 0.449553 0.383337
vt 0.419706 0.419706
vt 0.383337 0.449553
vt 0.000000 1.000000
vt 0.750000 0.490000
vt 0.796822 0.485388
vt 0.841844 0.471731
vt 0.883337 0.449553
vt 0.919706 0.419706
vt 0.949553 0.383337
vt 0.971731 0.341844
vt 0.985388 0.296822
vt 0.990000 0.250000
vt 0.985388 0.203178
vt 0.971731 0.158156
vt 0.949553 0.116663
vt 0.919706 0.080294
vt 0.883337 0.050447
vt 0.841844 0.028269
vt 0.750000 0.010000
vt 0.703178 0.014612
vt 0.658156 0.028269
vt 0.616663 0.050447
vt 0.580294 0.080294
vt 0.550447 0.116663
vt 0.528269 0.158156
vt 0.510000 0.250000
vt 0.514612 0.296822
vt 0.528269 0.341844
vt 0.550447 0.383337
vt 0.580294 0.419706
vt 0.616663 0.449553
vt 0.658156 0.471731
s 0
f 67/86/46 70/87/46 69/88/46
f 69/88/47 74/89/47 73/90/47
f 74/89/48 71/91/48 73/90/48
f 72/92/49 67/93/49 71/91/49
f 73/90/50 67/94/50 69/95/50
f 70/96/51 72/92/51 74/89/51
f 76/97/52 77/98/52 75/99/52
f 78/100/53 79/101/53 77/98/53
f 80/102/54 81/103/54 79/101/54
f 82/104/55 83/96/55 81/103/55
f 84/105/56 85/106/56 83/96/56
f 86/107/57 87/108/57 85/106/57
f 88/109/58 89/110/58 87/108/58
f 90/111/59 91/112/59 89/110/59
f 92/113/60 93/114/60 91/112/60
f 94/115/61 95/116/61 93/114/61
f 96/117/62 97/118/62 95/116/62
f 98/119/63 99/89/63 97/118/63
f 100/120/64 101/121/64 99/89/64
f 102/122/65 103/123/65 101/121/65
f 104/124/66 105/125/66 103/123/66
f 106/126/67 107/127/67 105/125/67
f 108/128/68 109/129/68 107/127/68
f 110/130/69 111/131/69 109/129/69
f 112/132/70 113/133/70 111/131/70
f 114/134/71 115/90/71 113/133/71
f 116/93/72 117/135/72 115/90/72
f 118/136/73 119/137/73 117/135/73
f 120/138/74 121/139/74 119/137/74
f 122/140/75 123/141/75 121/139/75
f 124/142/76 125/143/76 123/141/76
f 126/144/77 127/145/77 125/143/77
f 128/146/78 129/147/78 127/145/78
f 130/148/79 131/95/79 129/147/79
f 132/149/80 133/150/80 131/95/80
f 134/151/81 135/152/81 133/150/81
f 112/153/47 96/154/47 80/155/47
f 136/156/82 137/157/82 135/152/82
f 138/158/83 75/159/83 137/157/83
f 105/160/49 121/161/49 137/162/49
f 140/97/84 141/98/84 139/99/84
f 142/100/85 143/101/85 141/98/85
f 144/102/86 145/103/86 143/101/86
f 146/104/87 147/96/87 145/103/87
f 148/105/88 149/106/88 147/96/88
f 150/107/89 151/108/89 149/106/89
f 152/109/90 153/110/90 151/108/90
f 154/111/91 155/112/91 153/110/91
f 156/113/92 157/114/92 155/112/92
f 158/115/93 159/116/93 157/114/93
f 160/117/94 161/118/94 159/116/94
f 162/119/95 163/89/95 161/118/95
f 164/120/96 165/121/96 163/89/96
f 166/122/97 167/123/97 165/121/97
f 168/124/98 169/125/98 167/123/98
f 170/126/99 171/127/99 169/125/99
f 172/128/100 173/129/100 171/127/100
f 174/130/101 175/131/101 173/129/101
f 176/132/102 177/133/102 175/131/102
f 178/134/103 179/90/103 177/133/103
f 180/93/104 181/135/104 179/90/104
f 182/136/105 183/137/105 181/135/105
f 184/138/106 185/139/106 183/137/106
f 186/140/107 187/141/107 185/139/107
f 188/142/108 189/143/108 187/141/108
f 190/144/109 191/145/109 189/143/109
f 192/146/110 193/147/110 191/145/110
f 194/148/111 195/95/111 193/147/111
f 196/149/112 197/150/112 195/95/112
f 198/151/113 199/152/113 197/150/113
f 176/153/51 160/154/51 144/155/51
f 200/156/114 201/157/114 199/152/114
f 202/158/115 139/159/115 201/157/115
f 169/160/50 185/161/50 201/162/50
f 204/163/50 205/88/50 203/86/50
f 206/87/46 209/90/46 205/88/46
f 210/89/51 207/91/51 209/90/51
f 208/92/48 203/93/48 207/91/48
f 209/90/47 203/94/47 205/95/47
f 206/96/49 208/92/49 210/89/49
f 212/97/116 213/98/116 211/99/116
f 214/100/117 215/101/117 213/98/117
f 216/102/118 217/103/118 215/101/118
f 218/104/119 219/96/119 217/103/119
f 220/105/120 221/106/120 219/96/120
f 222/107/121 223/108/121 221/106/121
f 224/109/122 225/110/122 223/108/122
f 226/111/123 227/112/123 225/110/123
f 228/113/124 229/114/124 227/112/124
f 230/115/125 231/116/125 229/114/125
f 232/117/126 233/118/126 231/116/126
f 234/119/127 235/89/127 233/118/127
f 236/120/128 237/121/128 235/89/128
f 238/122/129 239/123/129 237/121/129
f 240/124/130 241/125/130 239/123/130
f 242/126/131 243/127/131 241/125/131
f 244/128/132 245/129/132 243/127/132
f 245/129/133 248/132/133 247/131/133
f 247/131/134 250/134/134 249/133/134
f 250/134/135 251/90/135 249/133/135
f 252/93/136 253/135/136 251/90/136
f 253/135/137 256/138/137 255/137/137
f 255/137/138 258/140/138 257/139/138
f 258/140/139 259/141/139 257/139/139
f 260/142/140 261/143/140 259/141/140
f 262/144/141 263/145/141 261/143/141
f 264/146/142 265/147/142 263/145/142
f 266/148/143 267/95/143 265/147/143
f 268/149/144 269/150/144 267/95/144
f 270/151/145 271/152/145 269/150/145
f 248/153/46 232/154/46 216/155/46
f 272/156/146 273/157/146 271/152/146
f 274/158/147 211/159/147 273/157/147
f 241/160/48 257/161/48 273/162/48
f 67/86/46 68/163/46 70/87/46
f 69/88/47 70/87/47 74/89/47
f 74/89/48 72/92/48 71/91/48
f 72/92/49 68/120/49 67/93/49
f 73/90/50 71/91/50 67/94/50
f 70/96/51 68/164/51 72/92/51
f 76/97/52 78/100/52 77/98/52
f 78/100/53 80/102/53 79/101/53
f 80/102/54 82/104/54 81/103/54
f 82/104/55 84/105/55 83/96/55
f 84/105/56 86/107/56 85/106/56
f 86/107/57 88/109/57 87/108/57
f 88/109/58 90/111/58 89/110/58
f 90/111/59 92/113/59 91/112/59
f 92/113/60 94/115/60 93/114/60
f 94/115/61 96/117/61 95/116/61
f 96/117/62 98/119/62 97/118/62
f 98/119/63 100/120/63 99/89/63
f 100/120/64 102/122/64 101/121/64
f 102/122/65 104/124/65 103/123/65
f 104/124/66 106/126/66 105/125/66
f 106/126/67 108/128/67 107/127/67
f 108/128/68 110/130/68 109/129/68
f 110/130/69 112/132/69 111/131/69
f 112/132/70 114/134/70 113/133/70
f 114/134/71 116/93/71 115/90/71
f 116/93/72 118/136/72 117/135/72
f 118/136/73 120/138/73 119/137/73
f 120/138/74 122/140/74 121/139/74
f 122/140/75 124/142/75 123/141/75
f 124/142/76 126/144/76 125/143/76
f 126/144/77 128/146/77 127/145/77
f 128/146/78 130/148/78 129/147/78
f 130/148/79 132/149/79 131/95/79
f 132/149/80 134/151/80 133/150/80
f 134/151/81 136/156/81 135/152/81
f 80/155/148 78/165/148 76/166/148
f 76/166/148 138/167/148 136/168/148
f 136/168/148 134/169/148 132/170/148
f 132/170/47 130/171/47 128/172/47
f 128/172/47 126/173/47 124/174/47
f 124/174/47 122/175/47 120/176/47
f 120/176/47 118/177/47 116/178/47
f 116/178/149 114/179/149 112/153/149
f 112/153/149 110/180/149 108/181/149
f 108/181/149 106/182/149 104/183/149
f 104/183/149 102/184/149 100/185/149
f 100/185/47 98/186/47 96/154/47
f 96/154/47 94/187/47 92/188/47
f 92/188/47 90/189/47 88/190/47
f 88/190/47 86/191/47 84/192/47
f 84/192/148 82/193/148 80/155/148
f 80/155/47 76/166/47 136/168/47
f 136/168/47 132/170/47 128/172/47
f 128/172/47 124/174/47 120/176/47
f 120/176/47 116/178/47 112/153/47
f 112/153/47 108/181/47 104/183/47
f 104/183/47 100/185/47 96/154/47
f 96/154/47 92/188/47 88/190/47
f 88/190/47 84/192/47 80/155/47
f 80/155/47 136/168/47 128/172/47
f 128/172/47 120/176/47 112/153/47
f 112/153/47 104/183/47 96/154/47
f 96/154/47 88/190/47 80/155/47
f 80/155/47 128/172/47 112/153/47
f 136/156/82 138/158/82 137/157/82
f 138/158/83 76/194/83 75/159/83
f 137/162/49 75/195/49 77/196/49
f 77/196/150 79/197/150 81/198/150
f 81/198/150 83/199/150 85/200/150
f 85/200/49 87/201/49 89/202/49
f 89/202/49 91/203/49 93/204/49
f 93/204/49 95/205/49 97/206/49
f 97/206/151 99/207/151 101/208/151
f 101/208/151 103/209/151 105/160/151
f 105/160/49 107/210/49 109/211/49
f 109/211/151 111/212/151 113/213/151
f 113/213/151 115/214/151 117/215/151
f 117/215/49 119/216/49 121/161/49
f 121/161/49 123/217/49 125/218/49
f 125/218/49 127/219/49 129/220/49
f 129/220/150 131/221/150 133/222/150
f 133/222/150 135/223/150 137/162/150
f 137/162/49 77/196/49 81/198/49
f 81/198/49 85/200/49 89/202/49
f 89/202/49 93/204/49 97/206/49
f 97/206/49 101/208/49 105/160/49
f 105/160/49 109/211/49 113/213/49
f 113/213/49 117/215/49 121/161/49
f 121/161/49 125/218/49 129/220/49
f 129/220/49 133/222/49 137/162/49
f 137/162/49 81/198/49 89/202/49
f 89/202/49 97/206/49 105/160/49
f 105/160/49 113/213/49 121/161/49
f 121/161/49 129/220/49 137/162/49
f 137/162/49 89/202/49 105/160/49
f 140/97/84 142/100/84 141/98/84
f 142/100/85 144/102/85 143/101/85
f 144/102/86 146/104/86 145/103/86
f 146/104/87 148/105/87 147/96/87
f 148/105/88 150/107/88 149/106/88
f 150/107/89 152/109/89 151/108/89
f 152/109/90 154/111/90 153/110/90
f 154/111/91 156/113/91 155/112/91
f 156/113/92 158/115/92 157/114/92
f 158/115/93 160/117/93 159/116/93
f 160/117/94 162/119/94 161/118/94
f 162/119/95 164/120/95 163/89/95
f 164/120/96 166/122/96 165/121/96
f 166/122/97 168/124/97 167/123/97
f 168/124/98 170/126/98 169/125/98
f 170/126/99 172/128/99 171/127/99
f 172/128/100 174/130/100 173/129/100
f 174/130/101 176/132/101 175/131/101
f 176/132/102 178/134/102 177/133/102
f 178/134/103 180/93/103 179/90/103
f 180/93/104 182/136/104 181/135/104
f 182/136/105 184/138/105 183/137/105
f 184/138/106 186/140/106 185/139/106
f 186/140/107 188/142/107 187/141/107
f 188/142/108 190/144/108 189/143/108
f 190/144/109 192/146/109 191/145/109
f 192/146/110 194/148/110 193/147/110
f 194/148/111 196/149/111 195/95/111
f 196/149/112 198/151/112 197/150/112
f 198/151/113 200/156/113 199/152/113
f 144/155/51 142/165/51 140/166/51
f 140/166/51 202/167/51 200/168/51
f 200/168/51 198/169/51 196/170/51
f 196/170/51 194/171/51 192/172/51
f 192/172/51 190/173/51 188/174/51
f 188/174/51 186/175/51 184/176/51
f 184/176/51 182/177/51 180/178/51
f 180/178/51 178/179/51 176/153/51
f 176/153/51 174/180/51 172/181/51
f 172/181/51 170/182/51 168/183/51
f 168/183/51 166/184/51 164/185/51
f 164/185/51 162/186/51 160/154/51
f 160/154/51 158/187/51 156/188/51
f 156/188/51 154/189/51 152/190/51
f 152/190/51 150/191/51 148/192/51
f 148/192/51 146/193/51 144/155/51
f 144/155/51 140/166/51 200/168/51
f 200/168/51 196/170/51 192/172/51
f 192/172/51 188/174/51 184/176/51
f 184/176/51 180/178/51 176/153/51
f 176/153/51 172/181/51 168/183/51
f 168/183/51 164/185/51 160/154/51
f 160/154/51 156/188/51 152/190/51
f 152/190/51 148/192/51 144/155/51
f 144/155/51 200/168/51 192/172/51
f 192/172/51 184/176/51 176/153/51
f 176/153/51 168/183/51 160/154/51
f 160/154/51 152/190/51 144/155/51
f 144/155/51 192/172/51 176/153/51
f 200/156/114 202/158/114 201/157/114
f 202/158/115 140/194/115 139/159/115
f 201/162/50 139/195/50 141/196/50
f 141/196/50 143/197/50 145/198/50
f 145/198/50 147/199/50 149/200/50
f 149/200/50 151/201/50 153/202/50
f 153/202/50 155/203/50 157/204/50
f 157/204/50 159/205/50 161/206/50
f 161/206/50 163/207/50 165/208/50
f 165/208/50 167/209/50 169/160/50
f 169/160/50 171/210/50 173/211/50
f 173/211/50 175/212/50 177/213/50
f 177/213/50 179/214/50 181/215/50
f 181/215/50 183/216/50 185/161/50
f 185/161/50 187/217/50 189/218/50
f 189/218/50 191/219/50 193/220/50
f 193/220/50 195/221/50 197/222/50
f 197/222/50 199/223/50 201/162/50
f 201/162/50 141/196/50 145/198/50
f 145/198/50 149/200/50 153/202/50
f 153/202/50 157/204/50 161/206/50
f 161/206/50 165/208/50 169/160/50
f 169/160/50 173/211/50 177/213/50
f 177/213/50 181/215/50 185/161/50
f 185/161/50 189/218/50 193/220/50
f 193/220/50 197/222/50 201/162/50
f 201/162/50 145/198/50 153/202/50
f 153/202/50 161/206/50 169/160/50
f 169/160/50 177/213/50 185/161/50
f 185/161/50 193/220/50 201/162/50
f 201/162/50 153/202/50 169/160/50
f 204/163/50 206/87/50 205/88/50
f 206/87/46 210/89/46 209/90/46
f 210/89/51 208/92/51 207/91/51
f 208/92/48 204/120/48 203/93/48
f 209/90/47 207/91/47 203/94/47
f 206/96/49 204/164/49 208/92/49
f 212/97/116 214/100/116 213/98/116
f 214/100/117 216/102/117 215/101/117
f 216/102/152 218/104/152 217/103/152
f 218/104/119 220/105/119 219/96/119
f 220/105/120 222/107/120 221/106/120
f 222/107/121 224/109/121 223/108/121
f 224/109/122 226/111/122 225/110/122
f 226/111/123 228/113/123 227/112/123
f 228/113/124 230/115/124 229/114/124
f 230/115/125 232/117/125 231/116/125
f 232/117/126 234/119/126 233/118/126
f 234/119/153 236/120/153 235/89/153
f 236/120/128 238/122/128 237/121/128
f 238/122/129 240/124/129 239/123/129
f 240/124/130 242/126/130 241/125/130
f 242/126/131 244/128/131 243/127/131
f 244/128/132 246/130/132 245/129/132
f 245/129/133 246/130/133 248/132/133
f 247/131/134 248/132/134 250/134/134
f 250/134/135 252/93/135 251/90/135
f 252/93/154 254/136/154 253/135/154
f 253/135/137 254/136/137 256/138/137
f 255/137/138 256/138/138 258/140/138
f 258/140/139 260/142/139 259/141/139
f 260/142/140 262/144/140 261/143/140
f 262/144/141 264/146/141 263/145/141
f 264/146/142 266/148/142 265/147/142
f 266/148/143 268/149/143 267/95/143
f 268/149/144 270/151/144 269/150/144
f 270/151/155 272/156/155 271/152/155
f 216/155/156 214/165/156 212/166/156
f 212/166/46 274/167/46 272/168/46
f 272/168/46 270/169/46 268/170/46
f 268/170/157 266/171/157 264/172/157
f 264/172/46 262/173/46 260/174/46
f 260/174/46 258/175/46 256/176/46
f 256/176/46 254/177/46 252/178/46
f 252/178/46 250/179/46 248/153/46
f 248/153/158 246/180/158 244/181/158
f 244/181/158 242/182/158 240/183/158
f 240/183/46 238/184/46 236/185/46
f 236/185/159 234/186/159 232/154/159
f 232/154/46 230/187/46 228/188/46
f 228/188/46 226/189/46 224/190/46
f 224/190/157 222/191/157 220/192/157
f 220/192/46 218/193/46 216/155/46
f 216/155/46 212/166/46 272/168/46
f 272/168/46 268/170/46 264/172/46
f 264/172/46 260/174/46 256/176/46
f 256/176/46 252/178/46 248/153/46
f 248/153/46 244/181/46 240/183/46
f 240/183/46 236/185/46 232/154/46
f 232/154/46 228/188/46 224/190/46
f 224/190/46 220/192/46 216/155/46
f 216/155/46 272/168/46 264/172/46
f 264/172/46 256/176/46 248/153/46
f 248/153/46 240/183/46 232/154/46
f 232/154/46 224/190/46 216/155/46
f 216/155/46 264/172/46 248/153/46
f 272/156/146 274/158/146 273/157/146
f 274/158/147 212/194/147 211/159/147
f 273/162/48 211/195/48 213/196/48
f 213/196/48 215/197/48 217/198/48
f 217/198/160 219/199/160 221/200/160
f 221/200/48 223/201/48 225/202/48
f 225/202/48 227/203/48 229/204/48
f 229/204/48 231/205/48 233/206/48
f 233/206/161 235/207/161 237/208/161
f 237/208/161 239/209/161 241/160/161
f 241/160/48 243/210/48 245/211/48
f 245/211/161 247/212/161 249/213/161
f 249/213/161 251/214/161 253/215/161
f 253/215/48 255/216/48 257/161/48
f 257/161/48 259/217/48 261/218/48
f 261/218/48 263/219/48 265/220/48
f 265/220/161 267/221/161 269/222/161
f 269/222/48 271/223/48 273/162/48
f 273/162/48 213/196/48 217/198/48
f 217/198/48 221/200/48 225/202/48
f 225/202/48 229/204/48 233/206/48
f 233/206/48 237/208/48 241/160/48
f 241/160/48 245/211/48 249/213/48
f 249/213/48 253/215/48 257/161/48
f 257/161/48 261/218/48 265/220/48
f 265/220/48 269/222/48 273/162/48
f 273/162/48 217/198/48 225/202/48
f 225/202/48 233/206/48 241/160/48
f 241/160/48 249/213/48 257/161/48
f 257/161/48 265/220/48 273/162/48
f 273/162/48 225/202/48 241/160/48
